# Made in Blockbench 5.2.1
mtllib swordv2 (2).mtl

o handle_nob_1
v 0.0625 0.1627220869120796 0.11137378220871647
v 0.0625 0.2732075214724776 0.0008883476483184244
v 0.0625 0.05223665235168155 0.0008883476483184105
v 0.0625 0.16272208691207962 -0.10959708691207963
v -0.0625 0.2732075214724776 0.0008883476483184244
v -0.0625 0.1627220869120796 0.11137378220871647
v -0.0625 0.16272208691207962 -0.10959708691207963
v -0.0625 0.05223665235168155 0.0008883476483184105
vt 0.375 0.9375
vt 0.4375 0.9375
vt 0.4375 0.859375
vt 0.375 0.859375
vt 0.28125 0.90625
vt 0.359375 0.90625
vt 0.359375 0.828125
vt 0.28125 0.828125
vt 0.375 0.9375
vt 0.4375 0.9375
vt 0.4375 0.859375
vt 0.375 0.859375
vt 0.359375 0.90625
vt 0.359375 0.828125
vt 0.28125 0.828125
vt 0.28125 0.90625
vt 0.4375 0.859375
vt 0.375 0.859375
vt 0.375 0.9375
vt 0.4375 0.9375
vt 0.4375 0.9375
vt 0.375 0.9375
vt 0.375 0.859375
vt 0.4375 0.859375
vn 0 0.7071067811865476 -0.7071067811865475
vn 1 0 0
vn 0 -0.7071067811865476 0.7071067811865475
vn -1 0 0
vn 0 0.7071067811865475 0.7071067811865476
vn 0 -0.7071067811865475 -0.7071067811865476
usemtl m_3508c5a7-3c61-2f83-7e3f-e0550dbe1756
f 4/4/1 7/3/1 5/2/1 2/1/1
f 3/8/2 4/7/2 2/6/2 1/5/2
f 8/12/3 3/11/3 1/10/3 6/9/3
f 7/16/4 8/15/4 6/14/4 5/13/4
f 6/20/5 1/19/5 2/18/5 5/17/5
f 7/24/6 4/23/6 3/22/6 8/21/6
o handle_piece_5
v 0.03125 0.5625 0.0625
v 0.03125 0.5625 -0.0625
v 0.03125 0.125 0.0625
v 0.03125 0.125 -0.0625
v -0.03125 0.5625 -0.0625
v -0.03125 0.5625 0.0625
v -0.03125 0.125 -0.0625
v -0.03125 0.125 0.0625
vt 0.34375 0.75
vt 0.375 0.75
vt 0.375 0.53125
vt 0.34375 0.53125
vt 0.1875 0.8125
vt 0.25 0.8125
vt 0.25 0.59375
vt 0.1875 0.59375
vt 0.28125 0.65625
vt 0.3125 0.65625
vt 0.3125 0.4375
vt 0.28125 0.4375
vt 0.25 0.8125
vt 0.1875 0.8125
vt 0.1875 0.59375
vt 0.25 0.59375
vt 0.34375 0.59375
vt 0.3125 0.59375
vt 0.3125 0.65625
vt 0.34375 0.65625
vt 0.34375 0.65625
vt 0.3125 0.65625
vt 0.3125 0.59375
vt 0.34375 0.59375
vn 0 0 -1
vn 1 0 0
vn 0 0 1
vn -1 0 0
vn 0 1 0
vn 0 -1 0
usemtl m_3508c5a7-3c61-2f83-7e3f-e0550dbe1756
f 12/28/7 15/27/7 13/26/7 10/25/7
f 11/32/8 12/31/8 10/30/8 9/29/8
f 16/36/9 11/35/9 9/34/9 14/33/9
f 15/40/10 16/39/10 14/38/10 13/37/10
f 14/44/11 9/43/11 10/42/11 13/41/11
f 15/48/12 12/47/12 11/46/12 16/45/12
o Blade_F_2
v 0.0646498078879912 1.65625 -0.00021376258957853835
v 0.0005210310144283248 1.65625 -0.17640612898693636
v 0.0646498078879912 0.6875 -0.00021376258957853835
v 0.0005210310144283248 0.6875 -0.17640612898693636
v -0.00006627687356274004 1.65625 -0.17619236639735786
v 0.06406250000000013 1.65625 -3.797186380057534e-17
v -0.00006627687356274004 0.6875 -0.17619236639735786
v 0.06406250000000013 0.6875 -3.797186380057534e-17
vt 0.25 0.65625
vt 0.265625 0.65625
vt 0.265625 0.171875
vt 0.25 0.171875
vt 0 1
vt 0.09375 1
vt 0.09375 0.515625
vt 0 0.515625
vt 0.25 0.65625
vt 0.265625 0.65625
vt 0.265625 0.171875
vt 0.25 0.171875
vt 0 1
vt 0.09375 1
vt 0.09375 0.515625
vt 0 0.515625
vt 0.265625 0.171875
vt 0.25 0.171875
vt 0.25 0.65625
vt 0.265625 0.65625
vt 0.265625 0.65625
vt 0.25 0.65625
vt 0.25 0.171875
vt 0.265625 0.171875
vn -0.34202014332566866 0 -0.9396926207859084
vn 0.9396926207859084 0 -0.34202014332566866
vn 0.34202014332566866 0 0.9396926207859084
vn -0.9396926207859084 0 0.34202014332566866
vn 0 1 0
vn 0 -1 0
usemtl m_3508c5a7-3c61-2f83-7e3f-e0550dbe1756
f 20/52/13 23/51/13 21/50/13 18/49/13
f 19/56/14 20/55/14 18/54/14 17/53/14
f 24/60/15 19/59/15 17/58/15 22/57/15
f 23/64/16 24/63/16 22/62/16 21/61/16
f 22/68/17 17/67/17 18/66/17 21/65/17
f 23/72/18 20/71/18 19/70/18 24/69/18
o Blade_F_1
v -0.06347519211200874 1.65625 0.00021376258957857633
v 0.0006535847615541379 1.65625 -0.17597860380777924
v -0.06347519211200874 0.6875 0.00021376258957857633
v 0.0006535847615541379 0.6875 -0.17597860380777924
v 0.00006627687356285106 1.65625 -0.17619236639735783
v -0.06406250000000002 1.65625 0
v 0.00006627687356285106 0.6875 -0.17619236639735783
v -0.06406250000000002 0.6875 0
vt 0.25 0.65625
vt 0.265625 0.65625
vt 0.265625 0.171875
vt 0.25 0.171875
vt 0.09375 1
vt 0.1875 1
vt 0.1875 0.515625
vt 0.09375 0.515625
vt 0.25 0.65625
vt 0.265625 0.65625
vt 0.265625 0.171875
vt 0.25 0.171875
vt 0.09375 1
vt 0.1875 1
vt 0.1875 0.515625
vt 0.09375 0.515625
vt 0.265625 0.171875
vt 0.25 0.171875
vt 0.25 0.65625
vt 0.265625 0.65625
vt 0.265625 0.65625
vt 0.25 0.65625
vt 0.25 0.171875
vt 0.265625 0.171875
vn 0.34202014332566866 0 -0.9396926207859084
vn 0.9396926207859084 0 0.34202014332566866
vn -0.34202014332566866 0 0.9396926207859084
vn -0.9396926207859084 0 -0.34202014332566866
vn 0 1 0
vn 0 -1 0
usemtl m_3508c5a7-3c61-2f83-7e3f-e0550dbe1756
f 28/76/19 31/75/19 29/74/19 26/73/19
f 27/80/20 28/79/20 26/78/20 25/77/20
f 32/84/21 27/83/21 25/82/21 30/81/21
f 31/88/22 32/87/22 30/86/22 29/85/22
f 30/92/23 25/91/23 26/90/23 29/89/23
f 31/96/24 28/95/24 27/94/24 32/93/24
o Blade_B_2
v -0.06464980788799114 1.65625 0.0002137625895786878
v -0.0005210310144282693 1.65625 0.1764061289869365
v -0.06464980788799131 0.6875 0.00021376258957857633
v -0.0005210310144284358 0.6875 0.1764061289869364
v 0.00006627687356300371 1.65625 0.1761923663973579
v -0.06406249999999987 1.65625 1.1148293239707298e-16
v 0.00006627687356285106 0.6875 0.1761923663973578
v -0.06406250000000002 0.6875 0
vt 0.25 0.65625
vt 0.265625 0.65625
vt 0.265625 0.171875
vt 0.25 0.171875
vt 0 1
vt 0.09375 1
vt 0.09375 0.515625
vt 0 0.515625
vt 0.25 0.65625
vt 0.265625 0.65625
vt 0.265625 0.171875
vt 0.25 0.171875
vt 0 1
vt 0.09375 1
vt 0.09375 0.515625
vt 0 0.515625
vt 0.265625 0.65625
vt 0.25 0.65625
vt 0.25 0.171875
vt 0.265625 0.171875
vt 0.265625 0.171875
vt 0.25 0.171875
vt 0.25 0.65625
vt 0.265625 0.65625
vn 0.34202014332566877 -1.6435006729150523e-16 0.9396926207859084
vn -0.9396926207859084 1.15079156022785e-16 0.34202014332566877
vn -0.34202014332566877 1.6435006729150523e-16 -0.9396926207859084
vn 0.9396926207859084 -1.15079156022785e-16 -0.34202014332566877
vn 1.6435006729150526e-16 1 1.1507915602278503e-16
vn -1.6435006729150526e-16 -1 -1.1507915602278503e-16
usemtl m_3508c5a7-3c61-2f83-7e3f-e0550dbe1756
f 36/100/25 39/99/25 37/98/25 34/97/25
f 35/104/26 36/103/26 34/102/26 33/101/26
f 40/108/27 35/107/27 33/106/27 38/105/27
f 39/112/28 40/111/28 38/110/28 37/109/28
f 38/116/29 33/115/29 34/114/29 37/113/29
f 39/120/30 36/119/30 35/118/30 40/117/30
o Sheid
v 0.0625 0.6875 0.203125
v 0.0625 0.6875 -0.203125
v 0.0625 0.5625 0.203125
v 0.0625 0.5625 -0.203125
v -0.0625 0.6875 -0.203125
v -0.0625 0.6875 0.203125
v -0.0625 0.5625 -0.203125
v -0.0625 0.5625 0.203125
vt 0.375 0.75
vt 0.4375 0.75
vt 0.4375 0.6875
vt 0.375 0.6875
vt 0.25 0.8125
vt 0.453125 0.8125
vt 0.453125 0.75
vt 0.25 0.75
vt 0.375 0.75
vt 0.4375 0.75
vt 0.4375 0.6875
vt 0.375 0.6875
vt 0.25 0.8125
vt 0.453125 0.8125
vt 0.453125 0.75
vt 0.25 0.75
vt 0.25 0.8125
vt 0.453125 0.8125
vt 0.453125 0.75
vt 0.25 0.75
vt 0.25 0.8125
vt 0.453125 0.8125
vt 0.453125 0.75
vt 0.25 0.75
vn 0 0 -1
vn 1 0 0
vn 0 0 1
vn -1 0 0
vn 0 1 0
vn 0 -1 0
usemtl m_3508c5a7-3c61-2f83-7e3f-e0550dbe1756
f 44/124/31 47/123/31 45/122/31 42/121/31
f 43/128/32 44/127/32 42/126/32 41/125/32
f 48/132/33 43/131/33 41/130/33 46/129/33
f 47/136/34 48/135/34 46/134/34 45/133/34
f 46/140/35 41/139/35 42/138/35 45/137/35
f 47/144/36 44/143/36 43/142/36 48/141/36
o Blade_Tip_4
v -0.0037925535654936837 1.9946756801534673 0.00021376258957857633
v 0.05936196309078104 1.9835398349133642 -0.17597860380777924
v -0.06348411463850098 1.656148015055521 0.00021376258957857633
v -0.0003295979822262596 1.6450121698154174 -0.17597860380777924
v 0.058783577729282 1.9836418198578432 -0.17619236639735783
v -0.0043709389269927235 1.9947776650979465 0
v -0.0009079833437252993 1.6451141547598966 -0.17619236639735783
v -0.06406250000000002 1.65625 0
vt 0.25 0.65625
vt 0.265625 0.65625
vt 0.265625 0.171875
vt 0.25 0.171875
vt 0.1875 1
vt 0.28125 1
vt 0.28125 0.828125
vt 0.1875 0.828125
vt 0.25 0.65625
vt 0.265625 0.65625
vt 0.265625 0.171875
vt 0.25 0.171875
vt 0.28125 1
vt 0.1875 1
vt 0.1875 0.828125
vt 0.28125 0.828125
vt 0.265625 0.171875
vt 0.25 0.171875
vt 0.25 0.65625
vt 0.265625 0.65625
vt 0.265625 0.65625
vt 0.25 0.65625
vt 0.25 0.171875
vt 0.265625 0.171875
vn 0.33682408883346515 -0.0593911746138847 -0.9396926207859085
vn 0.9254165783983234 -0.16317591116653482 0.34202014332566866
vn -0.33682408883346515 0.0593911746138847 0.9396926207859085
vn -0.9254165783983234 0.16317591116653482 -0.34202014332566866
vn 0.17364817766693033 0.9848077530122081 6.938893903907228e-18
vn -0.17364817766693033 -0.9848077530122081 -6.938893903907228e-18
usemtl m_3508c5a7-3c61-2f83-7e3f-e0550dbe1756
f 52/148/37 55/147/37 53/146/37 50/145/37
f 51/152/38 52/151/38 50/150/38 49/149/38
f 56/156/39 51/155/39 49/154/39 54/153/39
f 55/160/40 56/159/40 54/158/40 53/157/40
f 54/164/41 49/163/41 50/162/41 53/161/41
f 55/168/42 52/167/42 51/166/42 56/165/42
o Blade_Tip_3
v -0.0049493242884916175 1.9948796500424257 0.00021376258957861452
v 0.0582051923677831 1.9837438048023222 0.17640612898693642
v -0.06464088536149906 1.656351984944479 0.00021376258957857635
v -0.001486368705224353 1.6452161397043756 0.1764061289869364
v 0.05878357772928214 1.9836418198578432 0.17619236639735783
v -0.004370938926992578 1.9947776650979465 3.8163916471489756e-17
v -0.0009079833437253132 1.6451141547598966 0.1761923663973578
v -0.06406250000000002 1.65625 0
vt 0.25 0.65625
vt 0.265625 0.65625
vt 0.265625 0.171875
vt 0.25 0.171875
vt 0.1875 1
vt 0.28125 1
vt 0.28125 0.828125
vt 0.1875 0.828125
vt 0.25 0.65625
vt 0.265625 0.65625
vt 0.265625 0.171875
vt 0.25 0.171875
vt 0.28125 1
vt 0.1875 1
vt 0.1875 0.828125
vt 0.28125 0.828125
vt 0.265625 0.171875
vt 0.25 0.171875
vt 0.25 0.65625
vt 0.265625 0.65625
vt 0.265625 0.65625
vt 0.25 0.65625
vt 0.25 0.171875
vt 0.265625 0.171875
vn 0.33682408883346515 -0.05939117461388494 0.9396926207859084
vn -0.9254165783983234 0.16317591116653518 0.34202014332566877
vn -0.33682408883346515 0.05939117461388494 -0.9396926207859084
vn 0.9254165783983234 -0.16317591116653518 -0.34202014332566877
vn 0.17364817766693078 0.984807753012208 1.1102230246251568e-16
vn -0.17364817766693078 -0.984807753012208 -1.1102230246251568e-16
usemtl m_3508c5a7-3c61-2f83-7e3f-e0550dbe1756
f 60/172/43 63/171/43 61/170/43 58/169/43
f 59/176/44 60/175/44 58/174/44 57/173/44
f 64/180/45 59/179/45 57/178/45 62/177/45
f 63/184/46 64/183/46 62/182/46 61/181/46
f 62/188/47 57/187/47 58/186/47 61/185/47
f 63/192/48 60/191/48 59/190/48 64/189/48
o Blade_Tip_2
v 0.003792553565493635 1.9946756801534673 -0.00021376258957850021
v -0.05936196309078107 1.983539834913364 0.1759786038077793
v 0.06348411463850108 1.656148015055521 -0.00021376258957853838
v 0.0003295979822263706 1.6450121698154174 0.17597860380777927
v -0.058783577729282235 1.9836418198578432 0.1761923663973578
v 0.004370938926992474 1.9947776650979465 1.920526709144096e-19
v 0.000907983343725216 1.6451141547598966 0.17619236639735777
v 0.06406249999999993 1.65625 -3.7971863800575346e-17
vt 0.25 0.65625
vt 0.265625 0.65625
vt 0.265625 0.171875
vt 0.25 0.171875
vt 0.1875 1
vt 0.28125 1
vt 0.28125 0.828125
vt 0.1875 0.828125
vt 0.25 0.65625
vt 0.265625 0.65625
vt 0.265625 0.171875
vt 0.25 0.171875
vt 0.28125 1
vt 0.1875 1
vt 0.1875 0.828125
vt 0.28125 0.828125
vt 0.265625 0.171875
vt 0.25 0.171875
vt 0.25 0.65625
vt 0.265625 0.65625
vt 0.265625 0.65625
vt 0.25 0.65625
vt 0.25 0.171875
vt 0.265625 0.171875
vn -0.33682408883346515 -0.05939117461388494 0.9396926207859084
vn -0.9254165783983234 -0.16317591116653518 -0.34202014332566877
vn 0.33682408883346515 0.05939117461388494 -0.9396926207859084
vn 0.9254165783983234 0.16317591116653518 0.34202014332566877
vn -0.17364817766693078 0.984807753012208 1.1102230246251568e-16
vn 0.17364817766693078 -0.984807753012208 -1.1102230246251568e-16
usemtl m_3508c5a7-3c61-2f83-7e3f-e0550dbe1756
f 68/196/49 71/195/49 69/194/49 66/193/49
f 67/200/50 68/199/50 66/198/50 65/197/50
f 72/204/51 67/203/51 65/202/51 70/201/51
f 71/208/52 72/207/52 70/206/52 69/205/52
f 70/212/53 65/211/53 66/210/53 69/209/53
f 71/216/54 68/215/54 67/214/54 72/213/54
o Blade_Tip_1
v 0.004949324288491666 1.9948796500424257 -0.00021376258957853835
v -0.05820519236778306 1.9837438048023222 -0.17640612898693636
v 0.06464088536149896 1.656351984944479 -0.00021376258957853835
v 0.001486368705224242 1.6452161397043756 -0.17640612898693636
v -0.05878357772928189 1.9836418198578432 -0.17619236639735786
v 0.0043709389269928275 1.9947776650979465 -3.797186380057534e-17
v 0.0009079833437253965 1.6451141547598966 -0.17619236639735786
v 0.06406250000000012 1.65625 -3.797186380057534e-17
vt 0.25 0.65625
vt 0.265625 0.65625
vt 0.265625 0.171875
vt 0.25 0.171875
vt 0.1875 1
vt 0.28125 1
vt 0.28125 0.828125
vt 0.1875 0.828125
vt 0.25 0.65625
vt 0.265625 0.65625
vt 0.265625 0.171875
vt 0.25 0.171875
vt 0.28125 1
vt 0.1875 1
vt 0.1875 0.828125
vt 0.28125 0.828125
vt 0.265625 0.171875
vt 0.25 0.171875
vt 0.25 0.65625
vt 0.265625 0.65625
vt 0.265625 0.65625
vt 0.25 0.65625
vt 0.25 0.171875
vt 0.265625 0.171875
vn -0.33682408883346515 -0.0593911746138847 -0.9396926207859085
vn 0.9254165783983234 0.16317591116653482 -0.34202014332566866
vn 0.33682408883346515 0.0593911746138847 0.9396926207859085
vn -0.9254165783983234 -0.16317591116653482 0.34202014332566866
vn -0.17364817766693033 0.9848077530122081 6.938893903907228e-18
vn 0.17364817766693033 -0.9848077530122081 -6.938893903907228e-18
usemtl m_3508c5a7-3c61-2f83-7e3f-e0550dbe1756
f 76/220/55 79/219/55 77/218/55 74/217/55
f 75/224/56 76/223/56 74/222/56 73/221/56
f 80/228/57 75/227/57 73/226/57 78/225/57
f 79/232/58 80/231/58 78/230/58 77/229/58
f 78/236/59 73/235/59 74/234/59 77/233/59
f 79/240/60 76/239/60 75/238/60 80/237/60
o Heart_B
v 0.09375 0.7111786389571104 0.18841529130879203
v 0.09375 0.622790291308792 0.10002694366047361
v 0.09375 0.622790291308792 0.27680363895711046
v 0.09375 0.5344019436604736 0.18841529130879206
v -0.09375 0.622790291308792 0.10002694366047361
v -0.09375 0.7111786389571104 0.18841529130879203
v -0.09375 0.5344019436604736 0.18841529130879206
v -0.09375 0.622790291308792 0.27680363895711046
vt 0.375 1
vt 0.46875 1
vt 0.46875 0.9375
vt 0.375 0.9375
vt 0.375 0.75
vt 0.4375 0.75
vt 0.4375 0.6875
vt 0.375 0.6875
vt 0.375 1
vt 0.46875 1
vt 0.46875 0.9375
vt 0.375 0.9375
vt 0.375 0.6875
vt 0.375 0.75
vt 0.4375 0.75
vt 0.4375 0.6875
vt 0.46875 0.9375
vt 0.375 0.9375
vt 0.375 1
vt 0.46875 1
vt 0.46875 1
vt 0.375 1
vt 0.375 0.9375
vt 0.46875 0.9375
vn 0 -0.7071067811865476 -0.7071067811865475
vn 1 0 0
vn 0 0.7071067811865476 0.7071067811865475
vn -1 0 0
vn 0 0.7071067811865475 -0.7071067811865476
vn 0 -0.7071067811865475 0.7071067811865476
usemtl m_3508c5a7-3c61-2f83-7e3f-e0550dbe1756
f 84/244/61 87/243/61 85/242/61 82/241/61
f 83/248/62 84/247/62 82/246/62 81/245/62
f 88/252/63 83/251/63 81/250/63 86/249/63
f 87/256/64 88/255/64 86/254/64 85/253/64
f 86/260/65 81/259/65 82/258/65 85/257/65
f 87/264/66 84/263/66 83/262/66 88/261/66
o Center_Heart
v 0.09375 0.7886294866054289 0.0009152913087920322
v 0.09375 0.6560469651329511 -0.13166723016368562
v 0.09375 0.6560469651329512 0.1334978127812697
v 0.09375 0.5234644436604735 0.00091529130879206
v -0.09375 0.6560469651329511 -0.13166723016368562
v -0.09375 0.7886294866054289 0.0009152913087920322
v -0.09375 0.5234644436604735 0.00091529130879206
v -0.09375 0.6560469651329512 0.1334978127812697
vt 0.25 0.75
vt 0.34375 0.75
vt 0.34375 0.65625
vt 0.25 0.65625
vt 0.28125 1
vt 0.375 1
vt 0.375 0.90625
vt 0.28125 0.90625
vt 0.25 0.75
vt 0.34375 0.75
vt 0.34375 0.65625
vt 0.25 0.65625
vt 0.28125 0.90625
vt 0.28125 1
vt 0.375 1
vt 0.375 0.90625
vt 0.34375 0.65625
vt 0.25 0.65625
vt 0.25 0.75
vt 0.34375 0.75
vt 0.34375 0.75
vt 0.25 0.75
vt 0.25 0.65625
vt 0.34375 0.65625
vn 0 -0.7071067811865476 -0.7071067811865475
vn 1 0 0
vn 0 0.7071067811865476 0.7071067811865475
vn -1 0 0
vn 0 0.7071067811865475 -0.7071067811865476
vn 0 -0.7071067811865475 0.7071067811865476
usemtl m_3508c5a7-3c61-2f83-7e3f-e0550dbe1756
f 92/268/67 95/267/67 93/266/67 90/265/67
f 91/272/68 92/271/68 90/270/68 89/269/68
f 96/276/69 91/275/69 89/274/69 94/273/69
f 95/280/70 96/279/70 94/278/70 93/277/70
f 94/284/71 89/283/71 90/282/71 93/281/71
f 95/288/72 92/287/72 91/286/72 96/285/72
o Heart_F
v 0.09375 0.7111786389571104 -0.18658470869120797
v 0.09375 0.622790291308792 -0.2749730563395264
v 0.09375 0.622790291308792 -0.09819636104288952
v 0.09375 0.5344019436604737 -0.18658470869120797
v -0.09375 0.622790291308792 -0.2749730563395264
v -0.09375 0.7111786389571104 -0.18658470869120797
v -0.09375 0.5344019436604737 -0.18658470869120797
v -0.09375 0.622790291308792 -0.09819636104288952
vt 0.375 1
vt 0.46875 1
vt 0.46875 0.9375
vt 0.375 0.9375
vt 0.375 0.75
vt 0.4375 0.75
vt 0.4375 0.6875
vt 0.375 0.6875
vt 0.375 1
vt 0.46875 1
vt 0.46875 0.9375
vt 0.375 0.9375
vt 0.375 0.6875
vt 0.375 0.75
vt 0.4375 0.75
vt 0.4375 0.6875
vt 0.46875 0.9375
vt 0.375 0.9375
vt 0.375 1
vt 0.46875 1
vt 0.46875 1
vt 0.375 1
vt 0.375 0.9375
vt 0.46875 0.9375
vn 0 -0.7071067811865476 -0.7071067811865475
vn 1 0 0
vn 0 0.7071067811865476 0.7071067811865475
vn -1 0 0
vn 0 0.7071067811865475 -0.7071067811865476
vn 0 -0.7071067811865475 0.7071067811865476
usemtl m_3508c5a7-3c61-2f83-7e3f-e0550dbe1756
f 100/292/73 103/291/73 101/290/73 98/289/73
f 99/296/74 100/295/74 98/294/74 97/293/74
f 104/300/75 99/299/75 97/298/75 102/297/75
f 103/304/76 104/303/76 102/302/76 101/301/76
f 102/308/77 97/307/77 98/306/77 101/305/77
f 103/312/78 100/311/78 99/310/78 104/309/78
o Blade_B_1
v 0.06347519211200885 1.65625 -0.00021376258957853846
v -0.0006535847615540546 1.65625 0.17597860380777927
v 0.06347519211200885 0.6875 -0.00021376258957853846
v -0.0006535847615540546 0.6875 0.17597860380777927
v -0.00006627687356298984 1.65625 0.17619236639735777
v 0.06406249999999991 1.65625 -3.797186380057536e-17
v -0.00006627687356298984 0.6875 0.17619236639735777
v 0.06406249999999991 0.6875 -3.797186380057536e-17
vt 0.25 0.65625
vt 0.265625 0.65625
vt 0.265625 0.171875
vt 0.25 0.171875
vt 0.09375 1
vt 0.1875 1
vt 0.1875 0.515625
vt 0.09375 0.515625
vt 0.25 0.65625
vt 0.265625 0.65625
vt 0.265625 0.171875
vt 0.25 0.171875
vt 0.09375 1
vt 0.1875 1
vt 0.1875 0.515625
vt 0.09375 0.515625
vt 0.265625 0.171875
vt 0.25 0.171875
vt 0.25 0.65625
vt 0.265625 0.65625
vt 0.265625 0.65625
vt 0.25 0.65625
vt 0.25 0.171875
vt 0.265625 0.171875
vn -0.3420201433256689 0 0.9396926207859084
vn -0.9396926207859084 0 -0.3420201433256689
vn 0.3420201433256689 0 -0.9396926207859084
vn 0.9396926207859084 0 0.3420201433256689
vn 0 1 0
vn 0 -1 0
usemtl m_3508c5a7-3c61-2f83-7e3f-e0550dbe1756
f 108/316/79 111/315/79 109/314/79 106/313/79
f 107/320/80 108/319/80 106/318/80 105/317/80
f 112/324/81 107/323/81 105/322/81 110/321/81
f 111/328/82 112/327/82 110/326/82 109/325/82
f 110/332/83 105/331/83 106/330/83 109/329/83
f 111/336/84 108/335/84 107/334/84 112/333/84
o handle_nob_2
v 0.06874999999999998 0.8429762066658074 -0.11168787097880267
v 0.06874999999999998 0.7324907721054094 -0.0012024364184046246
v 0.06874999999999998 0.9534616412262055 -0.00120243641840459
v 0.06874999999999998 0.8429762066658074 0.10928299814199345
v -0.06874999999999998 0.7324907721054094 -0.0012024364184046246
v -0.06874999999999998 0.8429762066658074 -0.11168787097880267
v -0.06874999999999998 0.8429762066658074 0.10928299814199345
v -0.06874999999999998 0.9534616412262055 -0.00120243641840459
vt 0.375 0.9375
vt 0.4375 0.9375
vt 0.4375 0.859375
vt 0.375 0.859375
vt 0.28125 0.90625
vt 0.359375 0.90625
vt 0.359375 0.828125
vt 0.28125 0.828125
vt 0.375 0.9375
vt 0.4375 0.9375
vt 0.4375 0.859375
vt 0.375 0.859375
vt 0.359375 0.90625
vt 0.359375 0.828125
vt 0.28125 0.828125
vt 0.28125 0.90625
vt 0.4375 0.859375
vt 0.375 0.859375
vt 0.375 0.9375
vt 0.4375 0.9375
vt 0.4375 0.9375
vt 0.375 0.9375
vt 0.375 0.859375
vt 0.4375 0.859375
vn 0 -0.7071067811865477 0.7071067811865475
vn 1 0 0
vn 0 0.7071067811865477 -0.7071067811865475
vn -1 0 0
vn 0 -0.7071067811865475 -0.7071067811865477
vn 0 0.7071067811865475 0.7071067811865477
usemtl m_3508c5a7-3c61-2f83-7e3f-e0550dbe1756
f 116/340/85 119/339/85 117/338/85 114/337/85
f 115/344/86 116/343/86 114/342/86 113/341/86
f 120/348/87 115/347/87 113/346/87 118/345/87
f 119/352/88 120/351/88 118/350/88 117/349/88
f 118/356/89 113/355/89 114/354/89 117/353/89
f 119/360/90 116/359/90 115/358/90 120/357/90
o handle_nob_3
v 0.06874999999999998 1.1230010265904204 0.00022229669433544014
v 0.06874999999999998 1.2334864611508185 0.11070773125473349
v 0.06874999999999998 1.2334864611508185 -0.11026313786606264
v 0.06874999999999998 1.3439718957112166 0.00022229669433540544
v -0.06874999999999998 1.2334864611508185 0.11070773125473349
v -0.06874999999999998 1.1230010265904204 0.00022229669433544014
v -0.06874999999999998 1.3439718957112166 0.00022229669433540544
v -0.06874999999999998 1.2334864611508185 -0.11026313786606264
vt 0.375 0.9375
vt 0.4375 0.9375
vt 0.4375 0.859375
vt 0.375 0.859375
vt 0.28125 0.90625
vt 0.359375 0.90625
vt 0.359375 0.828125
vt 0.28125 0.828125
vt 0.375 0.9375
vt 0.4375 0.9375
vt 0.4375 0.859375
vt 0.375 0.859375
vt 0.359375 0.90625
vt 0.359375 0.828125
vt 0.28125 0.828125
vt 0.28125 0.90625
vt 0.4375 0.859375
vt 0.375 0.859375
vt 0.375 0.9375
vt 0.4375 0.9375
vt 0.4375 0.9375
vt 0.375 0.9375
vt 0.375 0.859375
vt 0.4375 0.859375
vn 0 0.7071067811865477 0.7071067811865475
vn 1 0 0
vn 0 -0.7071067811865477 -0.7071067811865475
vn -1 0 0
vn 0 -0.7071067811865475 0.7071067811865477
vn 0 0.7071067811865475 -0.7071067811865477
usemtl m_3508c5a7-3c61-2f83-7e3f-e0550dbe1756
f 124/364/91 127/363/91 125/362/91 122/361/91
f 123/368/92 124/367/92 122/366/92 121/365/92
f 128/372/93 123/371/93 121/370/93 126/369/93
f 127/376/94 128/375/94 126/374/94 125/373/94
f 126/380/95 121/379/95 122/378/95 125/377/95
f 127/384/96 124/383/96 123/382/96 128/381/96
o handle_nob_4
v 0.06874999999999998 1.7207489734095796 -0.0002222966943355928
v 0.06874999999999998 1.6102635388491815 -0.11070773125473363
v 0.06874999999999998 1.6102635388491815 0.11026313786606247
v 0.06874999999999998 1.4997781042887834 -0.00022229669433557198
v -0.06874999999999998 1.6102635388491815 -0.11070773125473363
v -0.06874999999999998 1.7207489734095796 -0.0002222966943355928
v -0.06874999999999998 1.4997781042887834 -0.00022229669433557198
v -0.06874999999999998 1.6102635388491815 0.11026313786606247
vt 0.375 0.9375
vt 0.4375 0.9375
vt 0.4375 0.859375
vt 0.375 0.859375
vt 0.28125 0.90625
vt 0.359375 0.90625
vt 0.359375 0.828125
vt 0.28125 0.828125
vt 0.375 0.9375
vt 0.4375 0.9375
vt 0.4375 0.859375
vt 0.375 0.859375
vt 0.359375 0.90625
vt 0.359375 0.828125
vt 0.28125 0.828125
vt 0.28125 0.90625
vt 0.4375 0.859375
vt 0.375 0.859375
vt 0.375 0.9375
vt 0.4375 0.9375
vt 0.4375 0.9375
vt 0.375 0.9375
vt 0.375 0.859375
vt 0.4375 0.859375
vn 0 -0.7071067811865476 -0.7071067811865475
vn 1 0 0
vn 0 0.7071067811865476 0.7071067811865475
vn -1 0 0
vn 0 0.7071067811865475 -0.7071067811865476
vn 0 -0.7071067811865475 0.7071067811865476
usemtl m_3508c5a7-3c61-2f83-7e3f-e0550dbe1756
f 132/388/97 135/387/97 133/386/97 130/385/97
f 131/392/98 132/391/98 130/390/98 129/389/98
f 136/396/99 131/395/99 129/394/99 134/393/99
f 135/400/100 136/399/100 134/398/100 133/397/100
f 134/404/101 129/403/101 130/402/101 133/401/101
f 135/408/102 132/407/102 131/406/102 136/405/102